HIERARCHY
ROOT Hips
{
	OFFSET 0.000000 0.000000 0.000000
	CHANNELS 6 Xposition Yposition Zposition Xrotation Yrotation Zrotation
	JOINT LeftUpLeg_virtual
	{
		OFFSET 0.000000 0.000000 0.000000
		CHANNELS 3 Xrotation Yrotation Zrotation
		JOINT LeftUpLeg
		{
			OFFSET 11.394100 -6.187798 -0.413800
			CHANNELS 3 Xrotation Yrotation Zrotation
			JOINT LeftLeg
			{
				OFFSET 0.430247 -32.302673 3.732800
				CHANNELS 3 Xrotation Yrotation Zrotation
				JOINT LeftFoot
				{
					OFFSET -0.430247 -48.264931 -6.423300
					CHANNELS 3 Xrotation Yrotation Zrotation
					JOINT LeftToeBase
					{
						OFFSET 4.230900 -16.068199 23.438400
						CHANNELS 3 Xrotation Yrotation Zrotation
						JOINT LeftToe_End
						{
							OFFSET 4.510700 0.695400 19.974600
							CHANNELS 3 Xrotation Yrotation Zrotation
							End Site
							{
								OFFSET 0 0 0
							}
						}
					}
				}
			}
		}
	}
	JOINT RightUpLeg_virtual
	{
		OFFSET 0.000000 0.000000 0.000000
		CHANNELS 3 Xrotation Yrotation Zrotation
		JOINT RightUpLeg
		{
			OFFSET -11.333700 -6.187798 -0.413800
			CHANNELS 3 Xrotation Yrotation Zrotation
			JOINT RightLeg
			{
				OFFSET -0.430392 -32.302628 3.733000
				CHANNELS 3 Xrotation Yrotation Zrotation
				JOINT RightFoot
				{
					OFFSET 0.430392 -48.264973 -6.423500
					CHANNELS 3 Xrotation Yrotation Zrotation
					JOINT RightToeBase
					{
						OFFSET -4.230900 -16.068199 23.438400
						CHANNELS 3 Xrotation Yrotation Zrotation
						JOINT RightToe_End
						{
							OFFSET -4.510700 0.695400 19.974600
							CHANNELS 3 Xrotation Yrotation Zrotation
							End Site
							{
								OFFSET 0 0 0
							}
						}
					}
				}
			}
		}
	}
	JOINT Spine_virtual
	{
		OFFSET 0.000000 0.000000 0.000000
		CHANNELS 3 Xrotation Yrotation Zrotation
		JOINT Spine
		{
			OFFSET -0.002400 12.777504 0.315300
			CHANNELS 3 Xrotation Yrotation Zrotation
			JOINT Spine1
			{
				OFFSET -0.002067 5.816869 0.032633
				CHANNELS 3 Xrotation Yrotation Zrotation
				JOINT Spine1_split
				{
					OFFSET -0.002067 5.816869 0.032633
					CHANNELS 3 Xrotation Yrotation Zrotation
					JOINT Spine2
					{
						OFFSET -0.002067 5.816869 0.032633
						CHANNELS 3 Xrotation Yrotation Zrotation
						JOINT Neck_virtual
						{
							OFFSET 0.000000 0.000000 0.000000
							CHANNELS 3 Xrotation Yrotation Zrotation
							JOINT Neck
							{
								OFFSET -0.003700 21.199493 -0.826900
								CHANNELS 3 Xrotation Yrotation Zrotation
								JOINT Head
								{
									OFFSET 0.000000 20.442200 4.834800
									CHANNELS 3 Xrotation Yrotation Zrotation
									JOINT HeadTop_End
									{
										OFFSET 0.000000 34.668396 4.968400
										CHANNELS 3 Xrotation Yrotation Zrotation
										End Site
										{
											OFFSET 0 0 0
										}
									}
								}
							}
						}
						JOINT LeftShoulder_virtual
						{
							OFFSET 0.000000 0.000000 0.000000
							CHANNELS 3 Xrotation Yrotation Zrotation
							JOINT LeftShoulder
							{
								OFFSET 3.288150 8.794197 -1.372250
								CHANNELS 3 Xrotation Yrotation Zrotation
								JOINT LeftShoulder_split
								{
									OFFSET 3.288150 8.794197 -1.372250
									CHANNELS 3 Xrotation Yrotation Zrotation
									JOINT LeftArm
									{
										OFFSET 11.953299 -2.279007 -0.146200
										CHANNELS 3 Xrotation Yrotation Zrotation
										JOINT LeftForeArm
										{
											OFFSET 18.448900 0.000000 0.000000
											CHANNELS 3 Xrotation Yrotation Zrotation
											JOINT LeftHand
											{
												OFFSET 29.527798 0.000000 0.000000
												CHANNELS 3 Xrotation Yrotation Zrotation
												End Site
												{
													OFFSET 0 0 0
												}
											}
										}
									}
								}
							}
						}
						JOINT RightShoulder_virtual
						{
							OFFSET 0.000000 0.000000 0.000000
							CHANNELS 3 Xrotation Yrotation Zrotation
							JOINT RightShoulder
							{
								OFFSET -3.249400 8.794197 -1.372250
								CHANNELS 3 Xrotation Yrotation Zrotation
								JOINT RightShoulder_split
								{
									OFFSET -3.249400 8.794197 -1.372250
									CHANNELS 3 Xrotation Yrotation Zrotation
									JOINT RightArm
									{
										OFFSET -11.953299 -2.279007 -0.146200
										CHANNELS 3 Xrotation Yrotation Zrotation
										JOINT RightForeArm
										{
											OFFSET -18.448900 0.000000 0.000000
											CHANNELS 3 Xrotation Yrotation Zrotation
											JOINT RightHand
											{
												OFFSET -29.527802 0.000000 0.000000
												CHANNELS 3 Xrotation Yrotation Zrotation
												End Site
												{
													OFFSET 0 0 0
												}
											}
										}
									}
								}
							}
						}
					}
				}
			}
		}
	}
}
MOTION
Frames: 10
Frame Time: 0.03333333
4.757842 95.439064 -2.738319 0.000000 0.000000 0.000000 -15.811227 -54.036318 -9.455126 -27.544923 -1.012609 16.205763 22.260025 -9.758167 0.085185 9.375050 -7.562342 3.572011 -16.941050 -8.654084 1.818997 0.000000 0.000000 0.000000 -14.595768 -52.754510 -8.889794 3.185520 -12.856650 -13.185763 24.996908 6.249437 -3.855762 -18.391299 -11.434984 27.673903 -5.694293 -1.950320 -0.803235 0.000000 0.000000 0.000000 -17.717507 -46.302535 -9.523589 6.179814 5.623769 -0.135294 10.326769 10.218267 -3.333287 0.638678 -1.610301 0.427109 0.000000 0.000000 0.000000 10.324852 9.499964 -3.761586 -6.110232 -4.256906 1.811405 -3.093402 18.579008 1.089127 0.000000 0.000000 0.000000 9.601195 9.305312 -3.315014 2.912219 2.110748 -3.902447 -6.617320 1.353324 -5.789062 -14.076460 -4.749525 -54.312356 2.129425 -52.863895 1.057180 0.000000 0.000000 0.000000 10.178611 9.959449 -2.821869 2.865582 8.785854 9.435176 -3.207085 4.468009 -1.350913 -0.792410 -27.872858 64.803086 -8.991747 51.151020 9.838730 0.000000 0.000000 0.000000 
4.824325 96.051010 -1.896297 0.000000 0.000000 0.000000 -15.271010 -54.156423 -9.114539 -28.085441 -0.265774 17.296353 22.590967 -10.505645 0.017813 8.803692 -8.381822 4.941262 -15.989592 -8.078630 1.076505 0.000000 0.000000 0.000000 -13.506755 -52.297218 -8.349391 3.442842 -12.728431 -13.766323 22.526599 5.781100 -3.696003 -18.813758 -10.767262 25.309954 -1.916240 -2.280169 -0.086399 0.000000 0.000000 0.000000 -17.108029 -46.533386 -9.630682 6.251466 5.570297 -0.047720 10.715285 10.218207 -3.323302 1.036455 -0.895533 0.378799 0.000000 0.000000 0.000000 10.417377 9.506229 -3.680008 -6.361734 -4.074036 1.946762 -2.953315 19.386686 0.804884 0.000000 0.000000 0.000000 10.127254 9.315530 -3.323082 2.937883 1.696924 -4.101371 -5.947438 1.413282 -5.720485 -12.711663 -3.414063 -55.549696 2.103124 -51.445446 1.189064 0.000000 0.000000 0.000000 10.740113 10.036581 -2.927119 2.756101 9.365542 10.299228 -3.786407 3.994447 -0.951916 -0.252222 -28.245506 64.572718 -8.649337 50.107234 9.634357 0.000000 0.000000 0.000000 
5.127583 96.433533 -1.661488 0.000000 0.000000 0.000000 -13.942265 -53.724386 -8.384296 -30.349379 -0.141299 18.841027 23.095276 -10.973988 -0.141183 9.050898 -8.774573 3.575022 -13.365403 -6.795624 -0.490732 0.000000 0.000000 0.000000 -11.852008 -50.782194 -7.621185 1.383397 -12.996236 -14.294859 23.226069 5.472652 -3.182177 -19.988800 -9.330615 20.310544 0.744972 -2.131989 -0.087071 0.000000 0.000000 0.000000 -16.035720 -46.002560 -9.419146 6.600384 5.285002 -0.080473 11.448827 10.137645 -3.362197 1.526278 -0.107124 0.338349 0.000000 0.000000 0.000000 10.842456 9.421144 -3.647403 -7.748064 -3.608823 2.209082 -2.962523 19.759247 0.459342 0.000000 0.000000 0.000000 10.927174 9.232408 -3.413181 2.870235 1.438681 -3.795483 -5.256231 1.039708 -4.446129 -12.200115 -1.865488 -58.300268 3.220186 -50.531768 2.591288 0.000000 0.000000 0.000000 11.712422 9.994508 -3.204347 2.783931 10.014239 11.179013 -4.081208 3.469891 -0.705586 -0.996748 -26.411807 63.192767 -7.983320 49.409397 8.831027 0.000000 0.000000 0.000000 
5.558538 96.194191 -2.340931 0.000000 0.000000 0.000000 -12.177810 -52.942104 -7.578716 -33.741312 -0.435013 19.997523 22.885848 -10.359327 -0.200548 9.938508 -8.099223 0.510764 -10.171781 -5.149066 -2.555460 0.000000 0.000000 0.000000 -9.680758 -48.586380 -6.717626 -3.019654 -13.757271 -14.696619 27.639612 5.414670 -2.227057 -20.451144 -6.959374 13.885953 0.023963 -1.836122 -0.542208 0.000000 0.000000 0.000000 -14.374053 -44.975167 -8.759597 7.033979 4.744126 -0.181857 12.460466 9.903557 -3.403025 1.610943 0.171683 0.622285 0.000000 0.000000 0.000000 11.654229 9.188635 -3.642257 -10.162076 -2.914595 2.606291 -3.302544 19.667501 0.155418 0.000000 0.000000 0.000000 12.017410 8.992716 -3.532391 2.753074 1.488396 -2.990024 -4.636431 0.604019 -2.565435 -13.543301 -0.770346 -61.640395 4.615177 -49.360486 4.496822 0.000000 0.000000 0.000000 12.981419 9.762161 -3.532497 2.929218 10.657849 11.719962 -4.148781 2.849294 -0.709550 -3.367425 -22.752637 60.826653 -7.231145 49.757119 7.549388 0.000000 0.000000 0.000000 
6.003291 95.142365 -3.676331 0.000000 0.000000 0.000000 -9.738855 -51.642029 -6.532140 -38.087853 -0.773100 20.457132 21.533905 -8.357978 -0.001796 11.686600 -6.706106 -2.878426 -7.432683 -3.562075 -4.510743 0.000000 0.000000 0.000000 -7.497756 -46.209310 -5.929019 -9.909530 -15.114290 -15.060912 35.088690 5.959301 -1.000923 -18.776718 -3.840077 7.786502 -4.811140 -1.598951 -1.217113 0.000000 0.000000 0.000000 -11.981509 -43.473737 -7.702879 7.390153 4.009617 -0.276135 13.763573 9.453305 -3.412731 1.804086 0.288916 1.121412 0.000000 0.000000 0.000000 12.851832 8.739586 -3.648498 -13.519214 -2.179106 3.129963 -4.287104 18.862483 0.056389 0.000000 0.000000 0.000000 13.377573 8.533562 -3.660908 2.621760 1.740662 -1.881401 -4.126202 0.368183 -0.951332 -16.372556 -0.510993 -64.519217 5.212018 -47.641973 5.918009 0.000000 0.000000 0.000000 14.440270 9.277484 -3.805151 3.200510 11.191348 11.614954 -4.386891 2.426671 -0.754510 -6.667499 -17.888971 58.026378 -6.601292 51.819218 5.860410 0.000000 0.000000 0.000000 
6.109064 93.349098 -4.815380 0.000000 0.000000 0.000000 -6.360346 -49.367193 -5.067687 -43.822449 -0.976994 20.066350 19.414015 -5.738862 0.601471 14.987166 -5.863605 -5.592089 -6.586568 -2.329736 -5.291570 0.000000 0.000000 0.000000 -5.093806 -43.598392 -5.046462 -18.444731 -16.760347 -15.276913 44.201771 7.528427 0.044739 -15.778116 -0.352260 2.559046 -11.607353 -1.550020 -1.775029 0.000000 0.000000 0.000000 -8.670518 -41.589654 -6.384637 7.639707 3.172075 -0.280741 15.413632 8.766729 -3.411281 1.885562 0.428259 1.432027 0.000000 0.000000 0.000000 14.481008 8.083701 -3.656607 -17.573554 -1.669226 3.712578 -5.976911 17.484675 0.251892 0.000000 0.000000 0.000000 15.025528 7.875113 -3.808067 2.481691 2.075673 -0.690553 -3.608195 0.231281 0.000987 -19.848873 -1.296662 -66.021804 4.436402 -46.024885 6.288571 0.000000 0.000000 0.000000 16.055816 8.557837 -3.996353 3.591556 11.575228 10.769588 -4.827263 2.370957 -1.005039 -10.012186 -13.187787 55.357874 -6.037046 55.659130 3.686518 0.000000 0.000000 0.000000 
5.788172 90.945679 -5.905037 0.000000 0.000000 0.000000 -2.185310 -45.691025 -3.321417 -51.577747 -0.899921 19.519671 17.746978 -3.473923 1.488025 19.936740 -6.698446 -6.584583 -6.829924 -1.641276 -5.002991 0.000000 0.000000 0.000000 -1.832324 -40.367511 -3.709681 -27.194019 -18.536712 -15.100011 53.313284 9.758035 0.505354 -13.824802 3.137425 -2.711283 -17.156592 -1.639275 -1.988756 0.000000 0.000000 0.000000 -4.316168 -39.091013 -4.767119 7.889034 2.384271 -0.260095 17.406421 7.852376 -3.471023 1.866225 0.258225 1.633694 0.000000 0.000000 0.000000 16.485951 7.251641 -3.685769 -22.073831 -1.464156 4.155428 -8.338985 15.540914 0.814020 0.000000 0.000000 0.000000 16.914687 7.059234 -4.020541 2.380464 2.242750 0.300897 -2.939077 -0.313363 0.325012 -23.066794 -3.342231 -65.754935 2.331848 -45.603411 5.559184 0.000000 0.000000 0.000000 17.841293 7.669076 -4.131301 4.092275 11.955776 9.444834 -5.252679 3.128482 -1.417615 -12.849747 -9.850247 53.389990 -5.245006 60.878350 0.874238 0.000000 0.000000 0.000000 
5.058861 87.906425 -7.186226 0.000000 0.000000 0.000000 2.626786 -40.531319 -1.466277 -61.838825 -1.032414 19.010747 17.982881 -2.155326 2.262799 25.485587 -9.648032 -5.792932 -7.555614 -1.496436 -3.875066 0.000000 0.000000 0.000000 2.179602 -36.170148 -2.097230 -34.771257 -20.226227 -14.148788 61.305558 11.960504 0.365364 -14.801548 6.393571 -8.632982 -19.573956 -1.709387 -1.903391 0.000000 0.000000 0.000000 0.604450 -35.648397 -3.143863 8.274486 1.754283 -0.273494 19.672034 6.790352 -3.655659 1.637446 0.027168 1.489488 0.000000 0.000000 0.000000 18.783813 6.326829 -3.794603 -26.614652 -1.635053 4.274836 -11.189506 12.969004 1.620712 0.000000 0.000000 0.000000 18.958488 6.187031 -4.324063 2.321003 2.154636 1.008862 -2.489289 -1.015728 0.001473 -24.928468 -6.496327 -63.427056 -0.562038 -47.892631 3.861394 0.000000 0.000000 0.000000 19.832358 6.717664 -4.277912 4.668435 12.531473 7.757299 -5.359531 4.544509 -1.922721 -14.730389 -8.451934 52.177710 -3.764090 66.929966 -2.818685 0.000000 0.000000 0.000000 
4.203345 84.191437 -8.320683 0.000000 0.000000 0.000000 7.404038 -34.146380 0.119772 -73.901814 -1.676490 18.196848 22.159791 -2.187511 2.664259 30.023025 -14.042313 -4.191707 -9.064879 -1.657868 -2.104911 0.000000 0.000000 0.000000 6.769902 -30.689693 -0.481679 -40.864226 -21.520490 -12.364967 68.732699 13.846930 -0.393148 -19.089952 9.367793 -14.754983 -19.715765 -1.600850 -1.762499 0.000000 0.000000 0.000000 5.541920 -31.260106 -1.695763 8.823101 1.362281 -0.332586 21.961392 5.709448 -3.989114 1.108612 -0.089097 1.375680 0.000000 0.000000 0.000000 21.161661 5.416485 -4.017382 -30.651133 -2.107968 4.063369 -14.248704 9.868393 2.488807 0.000000 0.000000 0.000000 21.019822 5.346524 -4.729357 2.319461 1.736623 1.574592 -2.283433 -1.996671 -0.452545 -25.004843 -10.070311 -58.832183 -3.821505 -53.315026 1.230428 0.000000 0.000000 0.000000 21.925752 5.803791 -4.519666 5.300584 13.544623 5.945193 -4.679177 6.121659 -2.483634 -16.123847 -8.865212 51.132388 -0.810488 72.989628 -7.930017 0.000000 0.000000 0.000000 
3.443972 80.006874 -9.424862 0.000000 0.000000 0.000000 11.721809 -27.158304 1.209609 -85.741844 -2.025300 17.386395 31.698887 -2.171254 2.576211 30.581014 -17.645638 -1.848912 -10.313270 -1.851327 -1.028336 0.000000 0.000000 0.000000 11.387845 -24.443683 0.709817 -46.577536 -22.316668 -10.545647 76.736895 15.066065 -1.634828 -25.099627 11.776386 -19.933699 -20.275097 -1.263806 -1.795923 0.000000 0.000000 0.000000 10.192462 -26.092605 -0.529659 9.360417 1.237764 -0.470677 24.046980 4.699006 -4.465694 0.679278 0.134034 1.230060 0.000000 0.000000 0.000000 23.324760 4.569392 -4.352996 -33.769169 -2.801573 3.614096 -17.345561 6.360751 3.209472 0.000000 0.000000 0.000000 22.879928 4.586335 -5.190946 2.401830 0.986298 2.079838 -2.039081 -3.328349 -0.697669 -23.756935 -13.176412 -52.427644 -7.629374 -60.961604 -2.599654 0.000000 0.000000 0.000000 23.857091 4.968448 -4.846523 5.943469 15.124834 4.342585 -3.714305 7.166061 -2.975538 -17.657519 -9.945642 49.445529 4.899828 78.064008 -15.564376 0.000000 0.000000 0.000000 
